<svg width="112" height="112" viewBox="0 0 112 112" fill="none" xmlns="http://www.w3.org/2000/svg">
<g filter="url(#filter0_d)">
<rect x="24" y="20" width="64" height="64" rx="32" fill="white"/>
<path d="M55.4697 52.5304C55.4721 52.5328 55.4748 52.5349 55.4773 52.5372C55.4925 52.552 55.5081 52.5664 55.5245 52.5799C55.5336 52.5874 55.5434 52.594 55.5528 52.601C55.5629 52.6086 55.5729 52.6165 55.5835 52.6236C55.5944 52.6309 55.6057 52.6373 55.617 52.6439C55.6268 52.6498 55.6363 52.6559 55.6464 52.6613C55.6577 52.6674 55.6693 52.6725 55.6808 52.6779C55.6915 52.683 55.7021 52.6883 55.713 52.6929C55.7241 52.6974 55.7354 52.7012 55.7467 52.7052C55.7585 52.7094 55.7702 52.714 55.7823 52.7176C55.7935 52.721 55.8049 52.7235 55.8163 52.7264C55.8286 52.7295 55.8409 52.733 55.8535 52.7355C55.8666 52.7381 55.8798 52.7396 55.8929 52.7415C55.904 52.7431 55.9148 52.7451 55.926 52.7462C55.9506 52.7487 55.9753 52.75 56 52.75C56.0247 52.75 56.0494 52.7487 56.074 52.7462C56.0852 52.7451 56.0961 52.7431 56.1071 52.7415C56.1203 52.7396 56.1335 52.7381 56.1465 52.7355C56.1591 52.733 56.1714 52.7295 56.1838 52.7264C56.1951 52.7235 56.2065 52.721 56.2177 52.7176C56.2298 52.714 56.2415 52.7094 56.2533 52.7052C56.2646 52.7012 56.276 52.6974 56.287 52.6929C56.298 52.6883 56.3085 52.683 56.3192 52.6779C56.3307 52.6725 56.3423 52.6674 56.3536 52.6613C56.3637 52.6559 56.3733 52.6498 56.3831 52.6439C56.3943 52.6373 56.4056 52.6309 56.4165 52.6236C56.4271 52.6165 56.4371 52.6086 56.4473 52.601C56.4567 52.594 56.4664 52.5874 56.4755 52.5799C56.4922 52.5662 56.5081 52.5516 56.5236 52.5365C56.5258 52.5343 56.5282 52.5325 56.5303 52.5304L61.0303 48.0304C61.1 47.9607 61.1552 47.878 61.1929 47.787C61.2306 47.6961 61.25 47.5985 61.25 47.5C61.25 47.4015 61.2306 47.304 61.193 47.213C61.1553 47.122 61.1 47.0393 61.0304 46.9697C60.9607 46.9 60.8781 46.8448 60.7871 46.8071C60.6961 46.7694 60.5985 46.75 60.5 46.75C60.4016 46.75 60.304 46.7694 60.213 46.8071C60.122 46.8447 60.0393 46.9 59.9697 46.9696L56.75 50.1894V42.25C56.75 42.0511 56.671 41.8603 56.5303 41.7197C56.3897 41.579 56.1989 41.5 56 41.5C55.8011 41.5 55.6103 41.579 55.4697 41.7197C55.329 41.8603 55.25 42.0511 55.25 42.25V50.1894L52.0303 46.9696C51.9607 46.9 51.878 46.8447 51.787 46.8071C51.696 46.7694 51.5985 46.75 51.5 46.75C51.4015 46.75 51.304 46.7694 51.213 46.8071C51.122 46.8448 51.0393 46.9 50.9697 46.9697C50.9 47.0393 50.8448 47.122 50.8071 47.213C50.7694 47.304 50.75 47.4015 50.75 47.5C50.75 47.5985 50.7694 47.6961 50.8071 47.787C50.8448 47.878 50.9 47.9607 50.9697 48.0304L55.4697 52.5304Z" fill="#1D253C" fill-opacity="0.64"/>
<path d="M65 51.25H59.932L57.591 53.591C57.169 54.013 56.5967 54.25 56 54.25C55.4033 54.25 54.831 54.013 54.409 53.591L52.068 51.25H47C46.6023 51.2505 46.221 51.4086 45.9398 51.6898C45.6586 51.971 45.5005 52.3523 45.5 52.75V58.75C45.5005 59.1477 45.6586 59.529 45.9398 59.8102C46.221 60.0914 46.6023 60.2495 47 60.25H65C65.3977 60.2495 65.779 60.0914 66.0602 59.8102C66.3414 59.529 66.4995 59.1477 66.5 58.75V52.75C66.4995 52.3523 66.3414 51.971 66.0602 51.6898C65.779 51.4086 65.3977 51.2505 65 51.25ZM61.625 56.875C61.4025 56.875 61.185 56.809 61 56.6854C60.815 56.5618 60.6708 56.3861 60.5857 56.1805C60.5005 55.975 60.4783 55.7488 60.5217 55.5305C60.5651 55.3123 60.6722 55.1118 60.8296 54.9545C60.9869 54.7972 61.1873 54.69 61.4056 54.6466C61.6238 54.6032 61.85 54.6255 62.0556 54.7106C62.2611 54.7958 62.4368 54.94 62.5604 55.125C62.6841 55.31 62.75 55.5275 62.75 55.75C62.75 56.0484 62.6315 56.3345 62.4205 56.5455C62.2096 56.7565 61.9234 56.875 61.625 56.875Z" fill="#1D253C" fill-opacity="0.64"/>
</g>
<defs>
<filter id="filter0_d" x="0" y="0" width="112" height="112" filterUnits="userSpaceOnUse" color-interpolation-filters="sRGB">
<feFlood flood-opacity="0" result="BackgroundImageFix"/>
<feColorMatrix in="SourceAlpha" type="matrix" values="0 0 0 0 0 0 0 0 0 0 0 0 0 0 0 0 0 0 127 0"/>
<feOffset dy="4"/>
<feGaussianBlur stdDeviation="12"/>
<feColorMatrix type="matrix" values="0 0 0 0 0.113725 0 0 0 0 0.145098 0 0 0 0 0.235294 0 0 0 0.04 0"/>
<feBlend mode="normal" in2="BackgroundImageFix" result="effect1_dropShadow"/>
<feBlend mode="normal" in="SourceGraphic" in2="effect1_dropShadow" result="shape"/>
</filter>
</defs>
</svg>
