<svg width="185" height="20" viewBox="0 0 185 20" fill="none" xmlns="http://www.w3.org/2000/svg">
<path d="M8.92995 15.9292C7.24029 15.9292 5.71643 15.59 4.35838 14.9115C3.00034 14.2183 1.93443 13.267 1.16066 12.0575C0.386886 10.8333 0 9.46903 0 7.9646C0 6.46018 0.386886 5.10324 1.16066 3.89381C1.93443 2.66962 3.00034 1.71829 4.35838 1.03982C5.71643 0.346608 7.24029 0 8.92995 0C10.6196 0 12.1435 0.346608 13.5015 1.03982C14.8596 1.71829 15.9255 2.66224 16.6992 3.87168C17.473 5.08112 17.8599 6.44543 17.8599 7.9646C17.8599 9.48378 17.473 10.8481 16.6992 12.0575C15.9255 13.267 14.8596 14.2183 13.5015 14.9115C12.1435 15.59 10.6196 15.9292 8.92995 15.9292ZM8.92995 13.4071C10.0353 13.4071 11.0302 13.1785 11.9145 12.7212C12.7988 12.2493 13.4936 11.6003 13.9989 10.7743C14.5043 9.93363 14.7569 8.99705 14.7569 7.9646C14.7569 6.93215 14.5043 6.00295 13.9989 5.17699C13.4936 4.33628 12.7988 3.68732 11.9145 3.23009C11.0302 2.75811 10.0353 2.52212 8.92995 2.52212C7.82456 2.52212 6.82971 2.75811 5.9454 3.23009C5.06109 3.68732 4.36628 4.33628 3.86096 5.17699C3.35564 6.00295 3.10298 6.93215 3.10298 7.9646C3.10298 8.99705 3.35564 9.93363 3.86096 10.7743C4.36628 11.6003 5.06109 12.2493 5.9454 12.7212C6.82971 13.1785 7.82456 13.4071 8.92995 13.4071Z" fill="white"/>
<path d="M27.8509 3.76106C29.0827 3.76106 30.1802 4.0118 31.1434 4.51327C32.1225 5.01475 32.8884 5.72271 33.441 6.63717C33.9937 7.55162 34.2701 8.60619 34.2701 9.80088C34.2701 10.9956 33.9937 12.0575 33.441 12.9867C32.8884 13.9012 32.1225 14.6091 31.1434 15.1106C30.1802 15.6121 29.0827 15.8628 27.8509 15.8628C26.1455 15.8628 24.7953 15.3319 23.8005 14.2699V20H20.8396V3.89381H23.6584V5.44248C24.1479 4.88201 24.748 4.46165 25.4586 4.18142C26.185 3.90118 26.9824 3.76106 27.8509 3.76106ZM27.5193 13.4956C28.6089 13.4956 29.5011 13.1563 30.1959 12.4779C30.9066 11.7994 31.2619 10.9071 31.2619 9.80088C31.2619 8.69469 30.9066 7.80236 30.1959 7.12389C29.5011 6.44543 28.6089 6.10619 27.5193 6.10619C26.8087 6.10619 26.1692 6.26106 25.6007 6.5708C25.0322 6.86578 24.5822 7.29351 24.2505 7.85398C23.9189 8.41445 23.7531 9.06342 23.7531 9.80088C23.7531 10.5383 23.9189 11.1873 24.2505 11.7478C24.5822 12.3083 25.0322 12.7434 25.6007 13.0531C26.1692 13.3481 26.8087 13.4956 27.5193 13.4956Z" fill="white"/>
<path d="M48.9689 9.86726C48.9689 10.059 48.9531 10.3319 48.9215 10.6858H38.9967C39.1704 11.556 39.6205 12.2493 40.3469 12.7655C41.0891 13.267 42.005 13.5177 43.0946 13.5177C44.4842 13.5177 45.6291 13.09 46.5292 12.2345L48.1162 13.9381C47.5477 14.5723 46.8292 15.0516 45.9607 15.3761C45.0922 15.7006 44.1131 15.8628 43.0235 15.8628C41.6339 15.8628 40.41 15.6047 39.352 15.0885C38.294 14.5723 37.4729 13.8569 36.8886 12.9425C36.3201 12.0133 36.0359 10.9661 36.0359 9.80088C36.0359 8.65044 36.3122 7.61799 36.8649 6.70354C37.4334 5.77434 38.2151 5.05162 39.2099 4.5354C40.2048 4.01917 41.3259 3.76106 42.5734 3.76106C43.8052 3.76106 44.9027 4.01917 45.8659 4.5354C46.845 5.03687 47.603 5.75221 48.1399 6.68142C48.6926 7.59587 48.9689 8.65782 48.9689 9.86726ZM42.5734 5.97345C41.626 5.97345 40.8206 6.23894 40.1574 6.76991C39.5099 7.28614 39.1152 7.97935 38.973 8.84956H46.1502C46.0238 7.9941 45.6369 7.30088 44.9895 6.76991C44.3421 6.23894 43.5367 5.97345 42.5734 5.97345Z" fill="white"/>
<path d="M58.9901 3.76106C60.585 3.76106 61.8641 4.19617 62.8274 5.06637C63.7906 5.93658 64.2723 7.22714 64.2723 8.93805V15.708H61.3114V9.29204C61.3114 8.25959 61.0509 7.48525 60.5298 6.96903C60.0086 6.43805 59.2665 6.17257 58.3032 6.17257C57.2136 6.17257 56.353 6.4823 55.7213 7.10177C55.0897 7.70649 54.7738 8.58407 54.7738 9.73451V15.708H51.813V3.89381H54.6317V5.42035C55.1213 4.87463 55.7371 4.46165 56.4793 4.18142C57.2215 3.90118 58.0584 3.76106 58.9901 3.76106Z" fill="white"/>
<path d="M80.4639 7.9646H82.1457V13.8717C81.3719 14.5059 80.456 14.9926 79.398 15.3319C78.34 15.6711 77.2267 15.8407 76.0582 15.8407C74.4001 15.8407 72.9078 15.5015 71.5813 14.823C70.2549 14.1445 69.2127 13.208 68.4547 12.0133C67.6967 10.8038 67.3177 9.45428 67.3177 7.9646C67.3177 6.47493 67.6967 5.13274 68.4547 3.93805C69.2127 2.72861 70.2549 1.78466 71.5813 1.1062C72.9078 0.427729 74.408 0.0884962 76.0818 0.0884962C77.3451 0.0884962 78.5058 0.280237 79.5638 0.663718C80.6218 1.03245 81.514 1.58555 82.2404 2.32301L81.1508 3.36283C79.8402 2.15339 78.1742 1.54867 76.1529 1.54867C74.8107 1.54867 73.5947 1.82891 72.5051 2.38938C71.4313 2.9351 70.5865 3.70207 69.9706 4.69027C69.3548 5.66372 69.0469 6.75516 69.0469 7.9646C69.0469 9.17404 69.3548 10.2655 69.9706 11.2389C70.5865 12.2124 71.4313 12.9794 72.5051 13.5398C73.5789 14.1003 74.787 14.3805 76.1292 14.3805C77.8347 14.3805 79.2796 13.9823 80.4639 13.1858V7.9646Z" fill="white"/>
<path d="M97.5999 10.3761H87.1777C87.2724 11.5855 87.7698 12.5664 88.6699 13.3186C89.57 14.056 90.707 14.4248 92.0808 14.4248C92.8546 14.4248 93.5652 14.2994 94.2127 14.0487C94.8601 13.7832 95.4207 13.3997 95.8944 12.8982L96.8419 13.9159C96.2892 14.5354 95.5944 15.0074 94.7575 15.3319C93.9363 15.6563 93.0283 15.8186 92.0335 15.8186C90.7544 15.8186 89.6174 15.5678 88.6226 15.0664C87.6435 14.5501 86.8776 13.8422 86.3249 12.9425C85.7722 12.0428 85.4959 11.0251 85.4959 9.88938C85.4959 8.75369 85.7565 7.73599 86.2776 6.83628C86.8145 5.93658 87.5409 5.23599 88.4568 4.73451C89.3884 4.23304 90.4307 3.9823 91.5834 3.9823C92.7362 3.9823 93.7705 4.23304 94.6864 4.73451C95.6023 5.23599 96.3208 5.93658 96.8419 6.83628C97.363 7.72124 97.6236 8.73894 97.6236 9.88938L97.5999 10.3761ZM91.5834 5.33186C90.3833 5.33186 89.3727 5.69322 88.5515 6.41593C87.7461 7.12389 87.2882 8.0531 87.1777 9.20354H96.0129C95.9023 8.0531 95.4365 7.12389 94.6153 6.41593C93.81 5.69322 92.7994 5.33186 91.5834 5.33186Z" fill="white"/>
<path d="M107.395 3.9823C108.958 3.9823 110.198 4.41003 111.114 5.26549C112.045 6.10619 112.511 7.33776 112.511 8.96018V15.708H110.829V9.11504C110.829 7.9056 110.506 6.98378 109.858 6.34956C109.211 5.71534 108.287 5.39823 107.087 5.39823C105.745 5.39823 104.679 5.77434 103.889 6.52655C103.115 7.26401 102.728 8.28909 102.728 9.60177V15.708H101.047V4.0708H102.657V6.21681C103.115 5.50885 103.747 4.96313 104.552 4.57965C105.374 4.18142 106.321 3.9823 107.395 3.9823Z" fill="white"/>
<path d="M127.972 10.3761H117.55C117.644 11.5855 118.142 12.5664 119.042 13.3186C119.942 14.056 121.079 14.4248 122.453 14.4248C123.227 14.4248 123.937 14.2994 124.585 14.0487C125.232 13.7832 125.793 13.3997 126.266 12.8982L127.214 13.9159C126.661 14.5354 125.966 15.0074 125.129 15.3319C124.308 15.6563 123.4 15.8186 122.405 15.8186C121.126 15.8186 119.989 15.5678 118.994 15.0664C118.015 14.5501 117.25 13.8422 116.697 12.9425C116.144 12.0428 115.868 11.0251 115.868 9.88938C115.868 8.75369 116.128 7.73599 116.65 6.83628C117.186 5.93658 117.913 5.23599 118.829 4.73451C119.76 4.23304 120.803 3.9823 121.955 3.9823C123.108 3.9823 124.142 4.23304 125.058 4.73451C125.974 5.23599 126.693 5.93658 127.214 6.83628C127.735 7.72124 127.996 8.73894 127.996 9.88938L127.972 10.3761ZM121.955 5.33186C120.755 5.33186 119.745 5.69322 118.923 6.41593C118.118 7.12389 117.66 8.0531 117.55 9.20354H126.385C126.274 8.0531 125.808 7.12389 124.987 6.41593C124.182 5.69322 123.171 5.33186 121.955 5.33186Z" fill="white"/>
<path d="M133.029 6.34956C133.424 5.56785 134.008 4.97788 134.782 4.57965C135.572 4.18142 136.543 3.9823 137.696 3.9823V5.50885L137.293 5.48673C135.982 5.48673 134.956 5.86283 134.214 6.61504C133.471 7.36726 133.1 8.42183 133.1 9.77876V15.708H131.419V4.0708H133.029V6.34956Z" fill="white"/>
<path d="M145.076 3.9823C146.702 3.9823 147.95 4.36578 148.818 5.13274C149.687 5.88496 150.121 7.0059 150.121 8.49558V15.708H148.511V13.8938C148.132 14.4985 147.571 14.9705 146.829 15.3097C146.102 15.649 145.234 15.8186 144.223 15.8186C142.834 15.8186 141.728 15.5088 140.907 14.8894C140.086 14.2699 139.675 13.4513 139.675 12.4336C139.675 11.4454 140.054 10.649 140.812 10.0442C141.586 9.43953 142.81 9.13717 144.484 9.13717H148.439V8.4292C148.439 7.42625 148.139 6.66667 147.539 6.15044C146.939 5.61947 146.063 5.35398 144.91 5.35398C144.121 5.35398 143.363 5.47935 142.636 5.73009C141.91 5.96608 141.286 6.29794 140.765 6.72566L140.007 5.5531C140.639 5.05162 141.397 4.66814 142.281 4.40265C143.165 4.12242 144.097 3.9823 145.076 3.9823ZM144.484 14.5796C145.431 14.5796 146.245 14.3805 146.924 13.9823C147.603 13.5693 148.108 12.9794 148.439 12.2124V10.3097H144.531C142.399 10.3097 141.333 11.0029 141.333 12.3894C141.333 13.0678 141.61 13.6062 142.162 14.0044C142.715 14.3879 143.489 14.5796 144.484 14.5796Z" fill="white"/>
<path d="M161.25 15C160.935 15.2655 160.54 15.472 160.066 15.6195C159.608 15.7522 159.126 15.8186 158.621 15.8186C157.453 15.8186 156.552 15.5236 155.921 14.9336C155.289 14.3437 154.973 13.5103 154.973 12.4336V5.39823H152.747V4.0708H154.973V1.52655H156.655V4.0708H160.445V5.39823H156.655V12.3451C156.655 13.0383 156.837 13.5693 157.2 13.9381C157.579 14.292 158.116 14.469 158.811 14.469C159.158 14.469 159.49 14.4174 159.805 14.3142C160.137 14.2109 160.421 14.0634 160.658 13.8717L161.25 15Z" fill="white"/>
<path d="M168.965 15.8186C167.765 15.8186 166.683 15.5678 165.72 15.0664C164.757 14.5501 163.999 13.8422 163.446 12.9425C162.893 12.0428 162.617 11.0251 162.617 9.88938C162.617 8.75369 162.893 7.73599 163.446 6.83628C163.999 5.93658 164.757 5.23599 165.72 4.73451C166.683 4.23304 167.765 3.9823 168.965 3.9823C170.165 3.9823 171.247 4.23304 172.21 4.73451C173.173 5.23599 173.924 5.93658 174.46 6.83628C175.013 7.73599 175.289 8.75369 175.289 9.88938C175.289 11.0251 175.013 12.0428 174.46 12.9425C173.924 13.8422 173.173 14.5501 172.21 15.0664C171.247 15.5678 170.165 15.8186 168.965 15.8186ZM168.965 14.4248C169.849 14.4248 170.639 14.2404 171.334 13.8717C172.044 13.4882 172.597 12.9499 172.992 12.2566C173.387 11.5634 173.584 10.7743 173.584 9.88938C173.584 9.00443 173.387 8.21534 172.992 7.52212C172.597 6.82891 172.044 6.29793 171.334 5.9292C170.639 5.54572 169.849 5.35398 168.965 5.35398C168.081 5.35398 167.283 5.54572 166.573 5.9292C165.878 6.29793 165.325 6.82891 164.915 7.52212C164.52 8.21534 164.322 9.00443 164.322 9.88938C164.322 10.7743 164.52 11.5634 164.915 12.2566C165.325 12.9499 165.878 13.4882 166.573 13.8717C167.283 14.2404 168.081 14.4248 168.965 14.4248Z" fill="white"/>
<path d="M180.334 6.34956C180.728 5.56785 181.313 4.97788 182.087 4.57965C182.876 4.18142 183.847 3.9823 185 3.9823V5.50885L184.597 5.48673C183.287 5.48673 182.26 5.86283 181.518 6.61504C180.776 7.36726 180.405 8.42183 180.405 9.77876V15.708H178.723V4.0708H180.334V6.34956Z" fill="white"/>
</svg>
