<svg width="78" height="20" viewBox="0 0 78 20" fill="none" xmlns="http://www.w3.org/2000/svg">
<g clip-path="url(#clip0)">
<path d="M7.98495 4.22367L9.97504 3.06445L11.9792 4.22367L11.9722 6.52796L9.98207 7.68364L7.97786 6.52796L7.98495 4.22367Z" fill="#04D2C5"/>
<path d="M11.9617 8.83505L13.9855 10.0048L11.997 11.1641L11.99 13.4684L13.9907 14.624L19.9609 11.1499L19.968 8.84563L13.9589 5.37154L11.9688 6.53075L11.9617 8.83505Z" fill="#04D2C5"/>
<path d="M7.97099 8.83505L7.97805 6.53075L5.97377 5.37154L0.0070569 8.84568L0 11.1499L6.0091 14.624L7.99569 13.4684L8.00268 11.1641L5.97988 9.99309L7.97099 8.83505Z" fill="#04D2C5"/>
<path d="M9.98746 12.3113L11.9881 13.4705L11.9812 15.7748L9.99456 16.934L7.99035 15.7748L7.99736 13.4705L9.98746 12.3113Z" fill="#04D2C5"/>
<path d="M9.98881 5.37931L9.98175 7.68361L7.97754 6.52793L7.9846 4.22363L9.98881 5.37931Z" fill="#04D2C5"/>
<path d="M9.98881 5.37931L9.98175 7.68361L7.97754 6.52793L7.9846 4.22363L9.98881 5.37931Z" fill="black" fill-opacity="0.08"/>
<path d="M15.9729 8.84517L15.9658 11.1495L11.9609 8.83457L11.968 6.53027L15.9729 8.84517Z" fill="#04D2C5"/>
<path d="M15.9729 8.84517L15.9658 11.1495L11.9609 8.83457L11.968 6.53027L15.9729 8.84517Z" fill="black" fill-opacity="0.08"/>
<path d="M13.998 12.3197L13.9909 14.624L11.9902 13.4684L11.9973 11.1641L13.998 12.3197Z" fill="#04D2C5"/>
<path d="M13.998 12.3197L13.9909 14.624L11.9902 13.4684L11.9973 11.1641L13.998 12.3197Z" fill="black" fill-opacity="0.16"/>
<path d="M6.01263 12.3198L6.0091 14.6241L0 11.15L0.00705708 8.8457L6.01263 12.3198Z" fill="#04D2C5"/>
<path d="M6.01263 12.3198L6.0091 14.6241L0 11.15L0.00705708 8.8457L6.01263 12.3198Z" fill="black" fill-opacity="0.16"/>
<path d="M9.99797 14.6299L9.99444 16.9342L7.99023 15.775L7.99729 13.4707L9.99797 14.6299Z" fill="#04D2C5"/>
<path d="M9.99797 14.6299L9.99444 16.9342L7.99023 15.775L7.99729 13.4707L9.99797 14.6299Z" fill="black" fill-opacity="0.16"/>
<path d="M11.9796 4.22363L11.9725 6.52793L9.98242 7.68361L9.98948 5.37931L11.9796 4.22363Z" fill="#04D2C5"/>
<path d="M11.9796 4.22363L11.9725 6.52793L9.98242 7.68361L9.98948 5.37931L11.9796 4.22363Z" fill="black" fill-opacity="0.16"/>
<path d="M7.97846 6.53027L7.9714 8.83457L3.99121 11.1495L3.99827 8.84517L7.97846 6.53027Z" fill="#04D2C5"/>
<path d="M7.97846 6.53027L7.9714 8.83457L3.99121 11.1495L3.99827 8.84517L7.97846 6.53027Z" fill="black" fill-opacity="0.16"/>
<path d="M19.9676 8.8457L19.9605 11.15L13.9902 14.6241L13.9973 12.3198L19.9676 8.8457Z" fill="#04D2C5"/>
<path d="M19.9676 8.8457L19.9605 11.15L13.9902 14.6241L13.9973 12.3198L19.9676 8.8457Z" fill="black" fill-opacity="0.08"/>
<path d="M8.00241 11.1641L7.99536 13.4684L6.00879 14.624L6.01232 12.3197L8.00241 11.1641Z" fill="#04D2C5"/>
<path d="M8.00241 11.1641L7.99536 13.4684L6.00879 14.624L6.01232 12.3197L8.00241 11.1641Z" fill="black" fill-opacity="0.08"/>
<path d="M11.9878 13.4707L11.9807 15.775L9.99414 16.9342L9.99767 14.6299L11.9878 13.4707Z" fill="#04D2C5"/>
<path d="M11.9878 13.4707L11.9807 15.775L9.99414 16.9342L9.99767 14.6299L11.9878 13.4707Z" fill="black" fill-opacity="0.08"/>
<path d="M9.98898 5.37935L11.9791 4.22367L9.97487 3.06445L7.98477 4.22367L9.98898 5.37935Z" fill="url(#paint0_linear)"/>
<path d="M3.99761 8.84566L7.97781 6.53076L5.9736 5.37154L0.00683594 8.84566L6.01241 12.3198L8.00251 11.1641L3.99761 8.84566Z" fill="url(#paint1_linear)"/>
<path d="M13.9975 12.3198L19.9678 8.84566L13.9587 5.37154L11.9686 6.53076L15.9735 8.84566L11.9969 11.1641L13.9975 12.3198Z" fill="url(#paint2_linear)"/>
<path d="M11.988 13.4705L9.99787 14.6297L7.99719 13.4705L9.98729 12.3113L11.988 13.4705Z" fill="url(#paint3_linear)"/>
</g>
<path d="M28.722 12.8284C28.1275 12.8284 27.5919 12.7009 27.1151 12.446C26.6384 12.1854 26.2626 11.8279 25.9878 11.3733C25.7186 10.9188 25.584 10.4116 25.584 9.85172C25.584 9.29185 25.7186 8.78464 25.9878 8.3301C26.2626 7.87555 26.6384 7.52079 27.1151 7.2658C27.5919 7.00527 28.1275 6.875 28.722 6.875C29.3109 6.875 29.8437 7.00527 30.3204 7.2658C30.7971 7.52079 31.1701 7.87555 31.4393 8.3301C31.7085 8.7791 31.8431 9.28631 31.8431 9.85172C31.8431 10.4171 31.7085 10.9271 31.4393 11.3817C31.1701 11.8307 30.7971 12.1854 30.3204 12.446C29.8437 12.7009 29.3109 12.8284 28.722 12.8284ZM28.722 12.0884C29.1538 12.0884 29.5408 11.9914 29.883 11.7974C30.2307 11.6034 30.5027 11.3373 30.699 10.9992C30.9009 10.6555 31.0019 10.273 31.0019 9.85172C31.0019 9.43043 30.9009 9.05072 30.699 8.71258C30.5027 8.3689 30.2307 8.10006 29.883 7.90604C29.5408 7.71203 29.1538 7.61502 28.722 7.61502C28.2901 7.61502 27.8975 7.71203 27.5442 7.90604C27.1964 8.10006 26.9216 8.3689 26.7197 8.71258C26.5234 9.05072 26.4253 9.43043 26.4253 9.85172C26.4253 10.273 26.5234 10.6555 26.7197 10.9992C26.9216 11.3373 27.1964 11.6034 27.5442 11.7974C27.8975 11.9914 28.2901 12.0884 28.722 12.0884Z" fill="#1D253C"/>
<path d="M35.3752 8.31347C35.8071 8.31347 36.1941 8.4077 36.5362 8.59617C36.8783 8.78465 37.1447 9.04795 37.3354 9.38609C37.5317 9.72422 37.6299 10.115 37.6299 10.5585C37.6299 11.0019 37.5317 11.3955 37.3354 11.7392C37.1447 12.0773 36.8783 12.3406 36.5362 12.5291C36.1941 12.7176 35.8071 12.8118 35.3752 12.8118C35.0555 12.8118 34.7611 12.7508 34.4919 12.6289C34.2283 12.5069 34.0039 12.3295 33.8189 12.0967V14.375H33.0112V8.35504H33.7852V9.05349C33.9647 8.80959 34.1918 8.62666 34.4666 8.50471C34.7415 8.37722 35.0443 8.31347 35.3752 8.31347ZM35.3079 12.1134C35.594 12.1134 35.8492 12.0496 36.0735 11.9221C36.3034 11.7891 36.4829 11.6062 36.6119 11.3733C36.7465 11.135 36.8138 10.8634 36.8138 10.5585C36.8138 10.2536 36.7465 9.98476 36.6119 9.75194C36.4829 9.51358 36.3034 9.33065 36.0735 9.20316C35.8492 9.07566 35.594 9.01192 35.3079 9.01192C35.0275 9.01192 34.7723 9.07844 34.5424 9.21147C34.318 9.33897 34.1385 9.51912 34.0039 9.75194C33.8749 9.98476 33.8104 10.2536 33.8104 10.5585C33.8104 10.8634 33.8749 11.135 34.0039 11.3733C34.1329 11.6062 34.3124 11.7891 34.5424 11.9221C34.7723 12.0496 35.0275 12.1134 35.3079 12.1134Z" fill="#1D253C"/>
<path d="M42.7755 10.5834C42.7755 10.6444 42.7699 10.7248 42.7587 10.8246H39.1412C39.1916 11.2126 39.3627 11.5258 39.6543 11.7641C39.9516 11.997 40.319 12.1134 40.7564 12.1134C41.2892 12.1134 41.7183 11.936 42.0436 11.5812L42.4895 12.0967C42.2876 12.3295 42.0352 12.5069 41.7323 12.6289C41.4351 12.7508 41.1014 12.8118 40.7312 12.8118C40.2601 12.8118 39.8422 12.7176 39.4777 12.5291C39.1131 12.3351 38.8299 12.0662 38.628 11.7226C38.4317 11.3789 38.3335 10.9909 38.3335 10.5585C38.3335 10.1317 38.4289 9.7464 38.6196 9.40272C38.8159 9.05904 39.0823 8.79296 39.4188 8.60449C39.7609 8.41048 40.1451 8.31347 40.5713 8.31347C40.9976 8.31347 41.3762 8.41048 41.7071 8.60449C42.0436 8.79296 42.3044 9.05904 42.4895 9.40272C42.6802 9.7464 42.7755 10.14 42.7755 10.5834ZM40.5713 8.98697C40.1844 8.98697 39.8591 9.10338 39.5955 9.3362C39.3375 9.56901 39.186 9.87389 39.1412 10.2508H42.0015C41.9567 9.87943 41.8024 9.57733 41.5388 9.34451C41.2808 9.10615 40.9583 8.98697 40.5713 8.98697Z" fill="#1D253C"/>
<path d="M46.2778 8.31347C46.8443 8.31347 47.293 8.477 47.6239 8.80405C47.9604 9.12555 48.1286 9.5995 48.1286 10.2259V12.7619H47.321V10.3174C47.321 9.89052 47.2173 9.56901 47.0097 9.35283C46.8022 9.13664 46.505 9.02855 46.118 9.02855C45.6805 9.02855 45.3356 9.15604 45.0832 9.41103C44.8308 9.66048 44.7046 10.0208 44.7046 10.492V12.7619H43.897V8.35504H44.671V9.02023C44.8336 8.79296 45.0523 8.61835 45.3272 8.4964C45.6076 8.37445 45.9245 8.31347 46.2778 8.31347Z" fill="#1D253C"/>
<path d="M51.4321 12.8035C51.0002 12.8035 50.588 12.7314 50.1954 12.5873C49.8084 12.4376 49.5055 12.2464 49.2868 12.0136L49.4803 11.6976C49.6878 11.9138 49.9654 12.0912 50.3132 12.2298C50.6665 12.3628 51.0367 12.4293 51.4237 12.4293C51.9845 12.4293 52.408 12.324 52.694 12.1134C52.98 11.9027 53.1231 11.6283 53.1231 11.2902C53.1231 11.0297 53.0473 10.8218 52.8959 10.6666C52.7445 10.5114 52.5566 10.3922 52.3322 10.309C52.1079 10.2259 51.805 10.14 51.4237 10.0513C50.9918 9.94595 50.6441 9.8434 50.3805 9.74363C50.1225 9.64385 49.9009 9.49141 49.7159 9.28631C49.5364 9.07566 49.4466 8.79573 49.4466 8.44651C49.4466 8.1638 49.5224 7.90604 49.6738 7.67323C49.8252 7.43487 50.0552 7.2464 50.3636 7.10782C50.6777 6.96923 51.0675 6.89994 51.533 6.89994C51.8583 6.89994 52.178 6.94706 52.4921 7.0413C52.8062 7.13553 53.0782 7.26303 53.3081 7.42378L53.1483 7.76469C52.9127 7.60394 52.6519 7.48198 52.3659 7.39884C52.0855 7.31569 51.8078 7.27411 51.533 7.27411C50.989 7.27411 50.5768 7.38221 50.2963 7.59839C50.0159 7.81458 49.8757 8.09451 49.8757 8.43819C49.8757 8.69872 49.9514 8.9066 50.1028 9.06181C50.2543 9.21702 50.4422 9.3362 50.6665 9.41935C50.8908 9.50249 51.1965 9.59119 51.5835 9.68542C52.0154 9.79074 52.3603 9.89329 52.6183 9.99307C52.8763 10.0928 53.095 10.2453 53.2745 10.4504C53.4596 10.6499 53.5521 10.9216 53.5521 11.2652C53.5521 11.5479 53.4736 11.8057 53.3165 12.0385C53.1651 12.2713 52.9296 12.457 52.6099 12.5956C52.2902 12.7342 51.8976 12.8035 51.4321 12.8035Z" fill="#1D253C"/>
<path d="M58.7796 8.42156V14.375H58.359V11.7558C58.1795 12.0829 57.9328 12.3379 57.6187 12.5208C57.3102 12.7037 56.9597 12.7952 56.5671 12.7952C56.1576 12.7952 55.7875 12.7037 55.4566 12.5208C55.1257 12.3323 54.8649 12.0718 54.6742 11.7392C54.4891 11.4011 54.3965 11.0186 54.3965 10.5917C54.3965 10.1649 54.4891 9.7852 54.6742 9.45261C54.8649 9.12001 55.1257 8.85948 55.4566 8.67101C55.7875 8.48254 56.1576 8.3883 56.5671 8.3883C56.9653 8.3883 57.3214 8.47977 57.6355 8.66269C57.9496 8.84562 58.1936 9.10615 58.3674 9.44429V8.42156H58.7796ZM56.5923 12.421C56.9288 12.421 57.2289 12.3434 57.4925 12.1882C57.7617 12.033 57.972 11.8168 58.1234 11.5396C58.2805 11.2625 58.359 10.9465 58.359 10.5917C58.359 10.237 58.2805 9.92101 58.1234 9.64385C57.972 9.36668 57.7617 9.1505 57.4925 8.99529C57.2289 8.84008 56.9288 8.76247 56.5923 8.76247C56.2558 8.76247 55.9529 8.84008 55.6837 8.99529C55.4201 9.1505 55.2098 9.36668 55.0528 9.64385C54.9013 9.92101 54.8256 10.237 54.8256 10.5917C54.8256 10.9465 54.9013 11.2625 55.0528 11.5396C55.2098 11.8168 55.4201 12.033 55.6837 12.1882C55.9529 12.3434 56.2558 12.421 56.5923 12.421Z" fill="#1D253C"/>
<path d="M64.3978 8.42156V12.7619H63.994V11.8307C63.8481 12.1355 63.6322 12.3739 63.3462 12.5457C63.0601 12.712 62.7236 12.7952 62.3366 12.7952C61.7646 12.7952 61.3159 12.6372 60.9906 12.3212C60.6653 12.0053 60.5026 11.5507 60.5026 10.9576V8.42156H60.9233V10.9243C60.9233 11.4121 61.0495 11.7835 61.3019 12.0385C61.5542 12.2935 61.9104 12.421 62.3703 12.421C62.8638 12.421 63.2536 12.2686 63.5397 11.9637C63.8313 11.6588 63.9771 11.2486 63.9771 10.7331V8.42156H64.3978Z" fill="#1D253C"/>
<path d="M67.6615 8.3883C68.2055 8.3883 68.6234 8.52688 68.915 8.80405C69.2067 9.07566 69.3525 9.47755 69.3525 10.0097V12.7619H68.9487V11.9886C68.8085 12.2436 68.6037 12.4432 68.3345 12.5873C68.0653 12.7259 67.7428 12.7952 67.3671 12.7952C66.8791 12.7952 66.4921 12.6815 66.2061 12.4543C65.9257 12.227 65.7854 11.9277 65.7854 11.5563C65.7854 11.196 65.9144 10.9049 66.1724 10.6832C66.436 10.4559 66.8539 10.3423 67.4259 10.3423H68.9318V9.99307C68.9318 9.58841 68.8197 9.28076 68.5953 9.07012C68.3766 8.85948 68.0541 8.75416 67.6279 8.75416C67.3362 8.75416 67.0558 8.80405 66.7866 8.90382C66.523 9.0036 66.2986 9.13664 66.1135 9.30294L65.9032 9.0036C66.122 8.80959 66.3856 8.65992 66.694 8.5546C67.0025 8.44374 67.325 8.3883 67.6615 8.3883ZM67.4259 12.4543C67.7905 12.4543 68.099 12.3711 68.3514 12.2048C68.6094 12.0385 68.8028 11.7974 68.9318 11.4814V10.6666H67.4344C67.0025 10.6666 66.6884 10.7442 66.4921 10.8994C66.3014 11.0546 66.2061 11.268 66.2061 11.5396C66.2061 11.8223 66.3126 12.0468 66.5258 12.2131C66.7389 12.3739 67.039 12.4543 67.4259 12.4543Z" fill="#1D253C"/>
<path d="M71.4894 9.36946C71.624 9.05349 71.8343 8.81236 72.1204 8.64606C72.4064 8.47422 72.7542 8.3883 73.1636 8.3883V8.79573L73.0626 8.78742C72.5747 8.78742 72.1933 8.93986 71.9185 9.24473C71.6437 9.54407 71.5062 9.96258 71.5062 10.5003V12.7619H71.0856V8.42156H71.4894V9.36946Z" fill="#1D253C"/>
<path d="M77.9916 10.6915H74.2142C74.2254 11.0297 74.3124 11.3318 74.475 11.5978C74.6376 11.8584 74.8564 12.0607 75.1312 12.2048C75.4116 12.3489 75.7257 12.421 76.0734 12.421C76.3595 12.421 76.6231 12.3711 76.8642 12.2713C77.111 12.166 77.3157 12.0136 77.4784 11.814L77.7224 12.0884C77.5317 12.3157 77.2905 12.4903 76.9989 12.6123C76.7128 12.7342 76.4015 12.7952 76.065 12.7952C75.6276 12.7952 75.2378 12.7009 74.8956 12.5125C74.5535 12.324 74.2843 12.0635 74.088 11.7309C73.8973 11.3983 73.802 11.0186 73.802 10.5917C73.802 10.1705 73.8917 9.79351 74.0712 9.46092C74.2563 9.12278 74.5087 8.85948 74.8283 8.67101C75.148 8.48254 75.507 8.3883 75.9052 8.3883C76.3034 8.3883 76.6595 8.48254 76.9736 8.67101C77.2933 8.85394 77.5429 9.1117 77.7224 9.44429C77.9074 9.77688 78 10.1538 78 10.5751L77.9916 10.6915ZM75.9052 8.75416C75.5967 8.75416 75.3191 8.82345 75.0723 8.96203C74.8255 9.09507 74.6264 9.28631 74.475 9.53575C74.3292 9.77966 74.245 10.0568 74.2226 10.3672H77.5878C77.5709 10.0568 77.4868 9.77966 77.3354 9.53575C77.1839 9.29185 76.9848 9.10061 76.7381 8.96203C76.4913 8.82345 76.2137 8.75416 75.9052 8.75416Z" fill="#1D253C"/>
<defs>
<linearGradient id="paint0_linear" x1="-0.000171866" y1="14.6879" x2="21.2769" y2="11.2668" gradientUnits="userSpaceOnUse">
<stop stop-color="#34DFD4"/>
<stop offset="1" stop-color="#54F3EA"/>
</linearGradient>
<linearGradient id="paint1_linear" x1="-0.000171866" y1="14.6879" x2="21.2769" y2="11.2668" gradientUnits="userSpaceOnUse">
<stop stop-color="#34DFD4"/>
<stop offset="1" stop-color="#54F3EA"/>
</linearGradient>
<linearGradient id="paint2_linear" x1="-0.000171866" y1="14.6879" x2="21.2769" y2="11.2668" gradientUnits="userSpaceOnUse">
<stop stop-color="#34DFD4"/>
<stop offset="1" stop-color="#54F3EA"/>
</linearGradient>
<linearGradient id="paint3_linear" x1="-0.000171866" y1="14.6879" x2="21.2769" y2="11.2668" gradientUnits="userSpaceOnUse">
<stop stop-color="#34DFD4"/>
<stop offset="1" stop-color="#54F3EA"/>
</linearGradient>
<clipPath id="clip0">
<rect width="19.968" height="20" fill="white"/>
</clipPath>
</defs>
</svg>
